Gallery: 
 
http://imagedomino.com/?g=676847


Video
ID : 2
Format : VC-1
Format profile : MP@HL
Codec ID : WMV3
Codec ID/Info : Windows Media Video 9
Codec ID/Hint : WMV3
Description of the codec : Windows Media Video 9 - Professional
Duration : 49mn 19s
Bit rate mode : Constant
Bit rate : 3 050 Kbps
Width : 1 280 pixels
Height : 720 pixels
Display aspect ratio : 16:9
Frame rate : 30.000 fps
Bit depth : 8 bits
Scan type : Progressive
Compression mode : Lossy
Bits/(Pixel*Frame) : 0.110
Stream size : 1.05 GiB (97%)
Language : English (US)

Audio
ID : 1
Format : WMA
Format version : Version 2
Codec ID : 161
Codec ID/Info : Windows Media Audio
Description of the codec : Windows Media Audio 9.2 - 96 kbps, 44 kHz, stereo (A/V) 1-pass CBR
Duration : 49mn 19s
Bit rate mode : Constant
Bit rate : 96.0 Kbps
Channel(s) : 2 channels
Sampling rate : 44.1 KHz
Bit depth : 16 bits
Stream size : 33.9 MiB (3%)
Language : English (US)